<svg id="Capa_1" data-name="Capa 1" xmlns="http://www.w3.org/2000/svg" viewBox="0 0 512 512" width="300" height="300"><defs><style>.cls-1{fill:#393a59;}.cls-2{fill:#6a6577;}.cls-3{fill:#282942;}.cls-4{fill:#d863bb;}.cls-5{fill:#ccc;}.cls-6{fill:#ededed;}.cls-7{fill:#7f7d89;}.cls-8{fill:#e87bc2;}.cls-9{fill:#f0f0f0;}</style></defs><circle class="cls-1" cx="256" cy="256" r="256"/><path class="cls-2" d="M470,214.52A214.57,214.57,0,0,1,152.38,402.7Q145,398.65,138,394A214.77,214.77,0,0,1,40.91,214.52C40.91,96,137,0,255.43,0S470,96,470,214.52Z" transform="translate(0 0)"/><path class="cls-1" d="M186.16,233.58a34.71,34.71,0,0,0-28.29,36.75,36.3,36.3,0,0,0,.69,4.77c-.53-.06-1.06-.1-1.6-.14l-1.36,0a42.14,42.14,0,0,0-38.13,62.19l-.46.23a42.16,42.16,0,0,0-73.39-6c-.29.45-.58.9-.86,1.36A34.72,34.72,0,0,0,8.44,321.43q-1.87-7.1-3.34-14.35l20.29-37.71,7.66,7.78a31.09,31.09,0,0,0,36,6L59,263l6.16,1.4a22.4,22.4,0,0,0,25.41-12.62l2.6-5.77,10,20.2A31.1,31.1,0,0,0,120,244.05a30.63,30.63,0,0,0,.2-10.21L118.62,223l4.76.74Z" transform="translate(0 0)"/><path class="cls-1" d="M472.89,320.26a3,3,0,0,1-5.62.62,34.67,34.67,0,0,0-31.7-20,33.29,33.29,0,0,0-4.8.37q.14-.79.24-1.59c.05-.46.11-.91.15-1.36A42.24,42.24,0,0,0,421,266.7a41.67,41.67,0,0,0-8.63-7.54A42.21,42.21,0,0,0,371.7,256l-.2-.48a42.14,42.14,0,0,0,11-72.8c-.42-.32-.85-.64-1.29-.95a34.71,34.71,0,0,0,11.9-39.69,3,3,0,0,1,4.4-3.54l44.58,28a3,3,0,0,1,.36,4.81l-5.2,4.46a31.12,31.12,0,0,0-9.59,32.38,3,3,0,0,0,4,1.94l12.07-5a3,3,0,0,1,4,3.63h0a22.4,22.4,0,0,0,10.87,26.21h0a3,3,0,0,1-.27,5.4l-12.07,5a3,3,0,0,0-1.47,4.24,31.08,31.08,0,0,0,29.68,16.07l6.84-.52a3,3,0,0,1,3.15,3.64l-.17.75Z" transform="translate(0 0)"/><path class="cls-1" d="M211.2,32.54a3,3,0,0,1-.48,5.63A34.67,34.67,0,0,0,185,65.44a32.43,32.43,0,0,0-.56,4.78c-.5-.19-1-.37-1.52-.54l-1.3-.41a42.25,42.25,0,0,0-33,3.92,41.68,41.68,0,0,0-9.06,7,42.92,42.92,0,0,0-5,6.21,42,42,0,0,0-5.86,33.1l-.51.1A42.15,42.15,0,0,0,58.9,94.82l-1.18,1.09a34.71,34.71,0,0,0-36.67-19.3,3,3,0,0,1-2.63-5L54.5,33.25a3,3,0,0,1,4.79.57l3.38,6A31.1,31.1,0,0,0,92.6,55.4a3,3,0,0,0,2.68-3.58L92.68,39A3,3,0,0,1,97,35.76h0a22.4,22.4,0,0,0,27.81-5.64h0a3,3,0,0,1,5.25,1.3l2.6,12.81a3,3,0,0,0,3.88,2.25,31.1,31.1,0,0,0,21.47-26l.8-6.81A3,3,0,0,1,163,11.25l.7.31Z" transform="translate(0 0)"/><path class="cls-3" d="M433,441a255.78,255.78,0,0,1-354,0,115.36,115.36,0,0,1,103.17-73c1.38-.06,2.78-.1,4.18-.1H325.64c1.4,0,2.8,0,4.18.1A115.36,115.36,0,0,1,433,441Z" transform="translate(0 0)"/><path class="cls-4" d="M256,448.64s177.29-128.71,170.92-140.3c-9.52-17.31-23.65-29.12-37.61-37.13A136.25,136.25,0,0,0,342.89,255L201.77,374.81Z" transform="translate(0 0)"/><path class="cls-3" d="M256,448.64s177.29-128.71,170.92-140.3c-9.52-17.31-23.65-29.12-37.61-37.13,14.28,15.79,28,39.81,6.9,60.89a29.37,29.37,0,0,1-11.15,7.1c-13.94,4.84-26.91,12.12-37.59,22.3Z" transform="translate(0 0)"/><path class="cls-4" d="M256,448.64S78.7,319.93,85.07,308.34c9.52-17.31,23.65-29.12,37.61-37.13A136.25,136.25,0,0,1,169.09,255Z" transform="translate(0 0)"/><path class="cls-5" d="M402.66,149.7l-48.83,28.8v58.59a24.42,24.42,0,0,0,24.41,24.42h0a24.42,24.42,0,0,0,24.42-24.42V149.7Z" transform="translate(0 0)"/><path class="cls-5" d="M109.32,149.7l48.83,28.8v58.59a24.42,24.42,0,0,1-24.41,24.42h0a24.42,24.42,0,0,1-24.42-24.42V149.7Z" transform="translate(0 0)"/><path class="cls-5" d="M310.22,308.2v58.25A54.23,54.23,0,0,1,256,420.68h0a54.22,54.22,0,0,1-54.22-54.23V308.2Z" transform="translate(0 0)"/><path class="cls-6" d="M376.73,145.05V247.43a120.74,120.74,0,0,1-241.48,0V145.05a121.07,121.07,0,0,1,1.09-16.25,119.42,119.42,0,0,1,16-45.67c21.07-35.23,186.24-35.23,207.3,0a119.48,119.48,0,0,1,16,45.67A121.07,121.07,0,0,1,376.73,145.05Z" transform="translate(0 0)"/><path class="cls-5" d="M170.23,247.43V145.05A120.76,120.76,0,0,1,273.48,25.59,120.7,120.7,0,0,0,135.25,145.05V247.43A120.74,120.74,0,0,0,256,368.17a123,123,0,0,0,17.49-1.27A120.77,120.77,0,0,1,170.23,247.43Z" transform="translate(0 0)"/><path class="cls-1" d="M316.09,223.66V200.52a10.92,10.92,0,0,0-10.92-10.92h0a10.92,10.92,0,0,0-10.93,10.92v23.14a10.93,10.93,0,0,0,10.93,10.93h0A10.92,10.92,0,0,0,316.09,223.66Z" transform="translate(0 0)"/><path class="cls-1" d="M195.89,200.52v23.14a10.93,10.93,0,0,0,10.93,10.93h0a10.93,10.93,0,0,0,10.93-10.93V200.52a10.93,10.93,0,0,0-10.93-10.93h0A10.94,10.94,0,0,0,195.89,200.52Z" transform="translate(0 0)"/><circle class="cls-7" cx="308.95" cy="204.58" r="7.14"/><circle class="cls-7" cx="210.61" cy="204.58" r="7.14"/><circle class="cls-7" cx="300.97" cy="221.54" r="4.11"/><circle class="cls-7" cx="202.64" cy="221.54" r="4.1"/><path class="cls-3" d="M162,128.8q0,1.9.15,3.75c1.16,14.77-4.18,29.4-15.38,39.1a62,62,0,0,1-11.47,7.87V145.05a120,120,0,0,1,17.09-61.92,61.88,61.88,0,0,1,13.92,26A46.77,46.77,0,0,0,162,128.8Z" transform="translate(0 0)"/><path class="cls-3" d="M376.73,145.05v34.47a62,62,0,0,1-11.47-7.87c-11.2-9.7-16.54-24.33-15.38-39.1q.15-1.86.15-3.75a46.75,46.75,0,0,0-4.32-19.68,62,62,0,0,1,13.93-26A120,120,0,0,1,376.73,145.05Z" transform="translate(0 0)"/><rect class="cls-6" x="192.29" y="166.07" width="27.17" height="47.36" transform="translate(-45.35 313.34) rotate(-68.86)"/><rect class="cls-6" x="282.44" y="176.17" width="47.36" height="27.17" transform="translate(-47.83 123.16) rotate(-21.14)"/><path class="cls-1" d="M313.11,257.67a57.13,57.13,0,0,1-114.25,0,127.72,127.72,0,0,0,114.25,0Z" transform="translate(0 0)"/><path class="cls-8" d="M288.42,304.69a57.07,57.07,0,0,1-64.86,0,57.11,57.11,0,0,1,64.86,0Z" transform="translate(0 0)"/><path class="cls-5" d="M323.31,169.9H188.67l37.77,28.32h4.16a13.18,13.18,0,0,1,13.18,13.18v20.44a12.47,12.47,0,0,0,12,12.61,12.22,12.22,0,0,0,12.45-12.21V211.4a13.18,13.18,0,0,1,13.17-13.18h4.16Z" transform="translate(0 0)"/><path class="cls-9" d="M296.87,264.44A86.1,86.1,0,0,1,294,277.78,91,91,0,0,1,288,292.85l-5.61-15.19L279.24,269A127.31,127.31,0,0,0,296.87,264.44Z" transform="translate(0 0)"/><path class="cls-9" d="M232.74,269l-3.19,8.63-5.61,15.19A91,91,0,0,1,218,277.78a86.1,86.1,0,0,1-2.91-13.34A127,127,0,0,0,232.74,269Z" transform="translate(0 0)"/><path class="cls-1" d="M169.62,177.74,180,161.66a6.18,6.18,0,0,1,8.54-1.85L230.77,187c5.77,3.71,2.1,12.66-4.62,11.24l-52.61-11.1A6.17,6.17,0,0,1,169.62,177.74Z" transform="translate(0 0)"/><path class="cls-1" d="M342.36,177.74,332,161.66a6.18,6.18,0,0,0-8.54-1.85L281.21,187c-5.77,3.71-2.1,12.66,4.61,11.24l52.62-11.1A6.17,6.17,0,0,0,342.36,177.74Z" transform="translate(0 0)"/><path class="cls-5" d="M269.23,335.69H242.76a4.87,4.87,0,0,1-4.88-4.87h0a4.87,4.87,0,0,1,4.88-4.88h26.47a4.87,4.87,0,0,1,4.87,4.88h0A4.87,4.87,0,0,1,269.23,335.69Z" transform="translate(0 0)"/><path class="cls-3" d="M359.64,83.13a120.75,120.75,0,0,0-223.3,45.67H162a47,47,0,0,1,47-47c.63,0,1.26,0,1.88,0,22.05.87,39.22,19.55,39.22,41.61v6.43a5.92,5.92,0,0,0,5.92,5.91h0a5.91,5.91,0,0,0,5.91-5.91v-6.43c0-22.06,17.18-40.74,39.22-41.61.63,0,1.26,0,1.89,0a47,47,0,0,1,47,47h25.61A119.42,119.42,0,0,0,359.64,83.13Z" transform="translate(0 0)"/><path class="cls-3" d="M256,448.64S78.7,319.93,85.07,308.34c9.52-17.31,23.65-29.12,37.61-37.13C108.4,287,94.7,311,115.78,332.1a29.37,29.37,0,0,0,11.15,7.1c13.94,4.84,26.91,12.12,37.59,22.3Z" transform="translate(0 0)"/><path class="cls-8" d="M298.44,441.09l-39.56,14.66a8.3,8.3,0,0,1-5.77,0l-39.56-14.66a8.31,8.31,0,0,0-11.19,7.8v24.39a8.31,8.31,0,0,0,11.19,7.79l39.56-14.66a8.3,8.3,0,0,1,5.77,0l39.56,14.66a8.31,8.31,0,0,0,11.19-7.79V448.89A8.31,8.31,0,0,0,298.44,441.09Z" transform="translate(0 0)"/><path class="cls-8" d="M294,277.78A91,91,0,0,1,288,292.85l-5.61-15.19a16.22,16.22,0,0,1,11.53.12Z" transform="translate(0 0)"/><path class="cls-8" d="M229.55,277.66l-5.61,15.19A91,91,0,0,1,218,277.78a16.22,16.22,0,0,1,11.53-.12Z" transform="translate(0 0)"/></svg>